<svg xmlns="http://www.w3.org/2000/svg" viewBox="0 0 47.444 94.442">
  <defs>
    <style>
      .cls-1 {
        fill: #294e95;
      }

      .cls-2 {
        fill: none;
      }

      .cls-3, .cls-5 {
        fill: #fff;
      }

      .cls-4, .cls-5 {
        stroke: none;
      }
    </style>
  </defs>
  <g id="bt-right" transform="translate(-514.999 -16.558)">
    <path id="前面オブジェクトで型抜き_12" data-name="前面オブジェクトで型抜き 12" class="cls-1" d="M-3635.778-1454H-3636v-94.44h.222a46.925,46.925,0,0,1,18.381,3.711,47.064,47.064,0,0,1,15.01,10.12,47.057,47.057,0,0,1,10.12,15.01,46.925,46.925,0,0,1,3.711,18.381,46.925,46.925,0,0,1-3.711,18.381,47.058,47.058,0,0,1-10.12,15.01,47.065,47.065,0,0,1-15.01,10.12A46.927,46.927,0,0,1-3635.778-1454Z" transform="translate(4151 1565)"/>
    <g id="パス_696" data-name="パス 696" class="cls-2" transform="translate(520.595 46.803)">
      <path class="cls-4" d="M12.512,0A12.512,12.512,0,1,1,0,12.512,12.512,12.512,0,0,1,12.512,0Z"/>
      <path class="cls-5" d="M 12.51157569885254 20.02342224121094 C 16.65347480773926 20.02342224121094 20.02315521240234 16.65368270874023 20.02315521240234 12.5117130279541 C 20.02315521240234 8.369743347167969 16.65347480773926 5.000002861022949 12.51157569885254 5.000002861022949 C 8.369675636291504 5.000002861022949 4.999995708465576 8.369743347167969 4.999995708465576 12.5117130279541 C 4.999995708465576 16.65368270874023 8.369675636291504 20.02342224121094 12.51157569885254 20.02342224121094 M 12.51157569885254 25.02342224121094 C 5.601625919342041 25.02342224121094 -4.301147328078514e-06 19.42174339294434 -4.301147328078514e-06 12.5117130279541 C -4.301147328078514e-06 5.601683139801025 5.601625919342041 3.027954107892583e-06 12.51157569885254 3.027954107892583e-06 C 19.4215259552002 3.027954107892583e-06 25.02315521240234 5.601683139801025 25.02315521240234 12.5117130279541 C 25.02315521240234 19.42174339294434 19.4215259552002 25.02342224121094 12.51157569885254 25.02342224121094 Z"/>
    </g>
    <rect id="長方形_151" data-name="長方形 151" class="cls-3" width="15.93" height="6.018" rx="3.009" transform="translate(541.772 64.018) rotate(42)"/>
  </g>
</svg>
