<svg xmlns="http://www.w3.org/2000/svg" viewBox="0 0 43 39">
  <defs>
    <style>
      .cls-1 {
        fill: #42484a;
      }

      .cls-2 {
        fill: #99a2a5;
      }
    </style>
  </defs>
  <g id="シンボル_160_1" data-name="シンボル 160 – 1" transform="translate(-195 -1015)">
    <path id="長方形_372" data-name="長方形 372" class="cls-1" d="M39,0h4a0,0,0,0,1,0,0V39a0,0,0,0,1,0,0H0a0,0,0,0,1,0,0v0A39,39,0,0,1,39,0Z" transform="translate(195 1015)"/>
    <g id="double-left-arrowheads" transform="translate(213 939.822)">
      <g id="グループ化_904" data-name="グループ化 904" transform="translate(0 92.178)">
        <path id="パス_1762" data-name="パス 1762" class="cls-2" d="M.038,98.267l2.993,5.342c.05.157.182.284.294.284H6.092c.112,0,.162-.127.112-.284L3.212,98.267a1.093,1.093,0,0,1,0-.568L6.2,92.462c.05-.157,0-.284-.112-.284H3.324c-.21,0-.34.358-.46.576C2.7,93.042.486,96.914.038,97.7A1.094,1.094,0,0,0,.038,98.267Z" transform="translate(0 -92.178)"/>
        <path id="パス_1763" data-name="パス 1763" class="cls-2" d="M250.678,92.465c.05-.157,0-.284-.112-.284H247.8c-.256,0-.593.808-.76,1.1-.294.515-2.509,4.37-2.525,4.42a1.092,1.092,0,0,0,0,.569l2.992,5.342c.05.157.182.284.294.284h2.767c.112,0,.162-.127.112-.284l-2.992-5.342a1.093,1.093,0,0,1,0-.569Z" transform="translate(-236.811 -92.181)"/>
      </g>
    </g>
  </g>
</svg>
