<svg xmlns="http://www.w3.org/2000/svg" viewBox="0 0 17.947 21.147">
  <defs>
    <style>
      .cls-1, .cls-2 {
        fill: #fff;
      }

      .cls-1 {
        stroke: #fff;
        stroke-width: 0.5px;
      }
    </style>
  </defs>
  <g id="icon-request" transform="translate(-59.545 -522.676)">
    <path id="前面オブジェクトで型抜き_3" data-name="前面オブジェクトで型抜き 3" class="cls-1" d="M-3932.236-70.073h-7.8a3.065,3.065,0,0,1-3.062-3.061V-85.261a3.065,3.065,0,0,1,3.062-3.061h8.795l-.774,1.132h-8.021a1.93,1.93,0,0,0-1.928,1.928v12.127a1.93,1.93,0,0,0,1.928,1.928h7.332v-1.716a1.608,1.608,0,0,1,1.606-1.606h1.717V-81.58l1.133-1.657v9.178l-.332.331L-3931.9-70.4l-.332.33Z" transform="translate(4002.895 613.646)"/>
    <path id="前面オブジェクトで型抜き_4" data-name="前面オブジェクトで型抜き 4" class="cls-1" d="M-3937.809-87.623h-4.483a.558.558,0,0,1-.557-.558.558.558,0,0,1,.557-.557h4.4l.039.52.044.594Z" transform="translate(4006.289 621.603)"/>
    <path id="パス_701" data-name="パス 701" class="cls-2" d="M0,0,3.342.053,1.7,2.079h0Z" transform="matrix(0.819, 0.574, -0.574, 0.819, 69.234, 530.633)"/>
    <path id="パス_703" data-name="パス 703" class="cls-2" d="M0,0,3.342.1l.1,8.763L.1,8.763Z" transform="matrix(0.819, 0.574, -0.574, 0.819, 74.676, 522.676)"/>
  </g>
</svg>
