<svg xmlns="http://www.w3.org/2000/svg" viewBox="0 0 43.009 43.008">
  <defs>
    <style>
      .cls-1 {
        fill: #fff;
      }
    </style>
  </defs>
  <g id="icon-zoom-out" transform="translate(-219.464 -1394.293)">
    <path id="icon-zoom-out-2" data-name="icon-zoom-out" class="cls-1" d="M32.879,29.817,44.5,41.462a2.157,2.157,0,0,1-3.062,3.019l-11.6-11.6a17.252,17.252,0,1,1,3.041-3.041ZM19.25,32.189A12.939,12.939,0,1,0,6.31,19.25,12.939,12.939,0,0,0,19.25,32.189ZM27.876,19.25a2.157,2.157,0,0,1-2.157,2.157H12.78a2.157,2.157,0,0,1,0-4.313H25.719A2.157,2.157,0,0,1,27.876,19.25Z" transform="translate(217.462 1392.291)"/>
  </g>
</svg>
