<svg xmlns="http://www.w3.org/2000/svg" viewBox="0 0 18.489 24.394">
  <defs>
    <style>
      .cls-1 {
        fill: #fff;
      }
    </style>
  </defs>
  <g id="icon-management" transform="translate(-58.759 -908.178)">
    <path id="前面オブジェクトで型抜き_11" data-name="前面オブジェクトで型抜き 11" class="cls-1" d="M-3923.755,445.532a10.622,10.622,0,0,1-5.421-1.484,10.694,10.694,0,0,1-3.824-3.891,9.544,9.544,0,0,1,4.967-6.156,7.244,7.244,0,0,0,4.523,1.59,7.165,7.165,0,0,0,4.325-1.437,9.58,9.58,0,0,1,4.674,6,10.7,10.7,0,0,1-3.823,3.892A10.619,10.619,0,0,1-3923.755,445.532Z" transform="translate(3991.759 487.041)"/>
    <ellipse id="楕円形_15" data-name="楕円形 15" class="cls-1" cx="6.226" cy="6.226" rx="6.226" ry="6.226" transform="translate(62 908.178)"/>
  </g>
</svg>
