<svg xmlns="http://www.w3.org/2000/svg" viewBox="0 0 15.35 18.75">
  <defs>
    <style>
      .cls-1 {
        fill: #fff;
        stroke: #fff;
        stroke-width: 0.5px;
      }

      .cls-2 {
        stroke: none;
      }

      .cls-3 {
        fill: none;
      }
    </style>
  </defs>
  <g id="icon-history" transform="translate(-58.546 -634.074)">
    <path id="パス_697" data-name="パス 697" class="cls-1" d="M59.485,0H50.758A3.065,3.065,0,0,0,47.7,3.062V15.189a3.065,3.065,0,0,0,3.061,3.061h7.8l.332-.331L62.215,14.6l.332-.332V3.062A3.065,3.065,0,0,0,59.485,0Zm1.929,13.794H59.7A1.607,1.607,0,0,0,58.09,15.4v1.716H50.758a1.928,1.928,0,0,1-1.928-1.927V3.062a1.928,1.928,0,0,1,1.928-1.928h8.727a1.928,1.928,0,0,1,1.929,1.928Z" transform="translate(11.099 634.324)"/>
    <g id="長方形_152" data-name="長方形 152" class="cls-1" transform="translate(62.19 638.385)">
      <rect class="cls-2" width="8.074" height="1.615" rx="0.807"/>
      <rect class="cls-3" x="0.25" y="0.25" width="7.574" height="1.115" rx="0.557"/>
    </g>
    <g id="長方形_152-2" data-name="長方形 152" class="cls-1" transform="translate(62.19 641.615)">
      <rect class="cls-2" width="8.074" height="1.615" rx="0.807"/>
      <rect class="cls-3" x="0.25" y="0.25" width="7.574" height="1.115" rx="0.557"/>
    </g>
    <g id="長方形_152-3" data-name="長方形 152" class="cls-1" transform="translate(62.19 644.844)">
      <rect class="cls-2" width="8.074" height="1.615" rx="0.807"/>
      <rect class="cls-3" x="0.25" y="0.25" width="7.574" height="1.115" rx="0.557"/>
    </g>
  </g>
</svg>
