<svg xmlns="http://www.w3.org/2000/svg" viewBox="0 0 21.248 24.572">
  <defs>
    <style>
      .cls-1 {
        fill: #fff;
      }
    </style>
  </defs>
  <g id="icon-worker" transform="translate(-1635 -70)">
    <path id="前面オブジェクトで型抜き_5" data-name="前面オブジェクトで型抜き 5" class="cls-1" d="M-3966.755,57.394a10.622,10.622,0,0,1-5.421-1.484A10.694,10.694,0,0,1-3976,52.019a9.544,9.544,0,0,1,4.967-6.156,7.244,7.244,0,0,0,4.523,1.59,7.165,7.165,0,0,0,4.325-1.437,9.58,9.58,0,0,1,4.674,6,10.7,10.7,0,0,1-3.823,3.892A10.618,10.618,0,0,1-3966.755,57.394Z" transform="translate(5613.759 37.178)"/>
    <path id="前面オブジェクトで型抜き_7" data-name="前面オブジェクトで型抜き 7" class="cls-1" d="M12.545,6H0A7.84,7.84,0,0,1,2.2,1.716,5.869,5.869,0,0,1,6.272,0a5.867,5.867,0,0,1,4.075,1.716A7.837,7.837,0,0,1,12.545,6Z" transform="translate(1641.072 70)"/>
    <path id="前面オブジェクトで型抜き_8" data-name="前面オブジェクトで型抜き 8" class="cls-1" d="M12.545,4.995H0A6.237,6.237,0,0,1,2.2,1.429a6.526,6.526,0,0,1,8.15,0,6.235,6.235,0,0,1,2.2,3.565Z" transform="translate(1653.618 82.995) rotate(-180)"/>
    <rect id="長方形_161" data-name="長方形 161" class="cls-1" width="17" height="3" rx="1.5" transform="translate(1635 72)"/>
  </g>
</svg>
