<svg xmlns="http://www.w3.org/2000/svg" viewBox="0 0 66 66">
  <defs>
    <style>
      .cls-1 {
        fill: #e37373;
      }

      .cls-2, .cls-3 {
        fill: #fff;
      }

      .cls-2 {
        font-size: 10px;
        font-family: Osaka;
      }
    </style>
  </defs>
  <g id="シンボル_159_1" data-name="シンボル 159 – 1" transform="translate(-442.196 -520)">
    <g id="グループ化_903" data-name="グループ化 903" transform="translate(0 174)">
      <rect id="長方形_371" data-name="長方形 371" class="cls-1" width="66" height="66" transform="translate(442.196 346)"/>
      <text id="Excel" class="cls-2" transform="translate(475.615 403.1)"><tspan x="-10" y="0">削除</tspan></text>
    </g>
    <g id="シンボル_158_1" data-name="シンボル 158 – 1">
      <path id="パス_1759" data-name="パス 1759" class="cls-3" d="M161.937,200.084a6.324,6.324,0,1,0,8.943.013A6.324,6.324,0,0,0,161.937,200.084Zm7.137,3.3-1.045,1.042a.194.194,0,0,0,0,.274l1.042,1.044a.439.439,0,0,1,0,.621l-.871.868a.439.439,0,0,1-.621,0l-1.042-1.045a.194.194,0,0,0-.274,0l-1.219,1.215a.194.194,0,0,1-.274,0l-1.215-1.219a.194.194,0,0,1,0-.274l1.219-1.215a.193.193,0,0,0,0-.273l-1.042-1.045a.44.44,0,0,1,0-.621l.871-.868a.439.439,0,0,1,.621,0l1.042,1.044a.193.193,0,0,0,.274,0l1.045-1.042a.439.439,0,0,1,.621,0l.868.87A.439.439,0,0,1,169.074,203.386Z" transform="translate(322.196 326.502)"/>
      <g id="ブログの投稿_編集アイコン素材" data-name="ブログの投稿、編集アイコン素材" transform="translate(458.027 521.028)">
        <path id="パス_1758" data-name="パス 1758" class="cls-3" d="M34.886,71.053v-.017l-4.73,4.73V88.118a.139.139,0,0,1-.124.124H17.139L4.828,88.23,4.8,88.218c-.023-.006-.047-.03-.071-.1V62.94a.129.129,0,0,1,.124-.124H17.372l2.768-2.768L22.1,58.1H22.09l.012-.012H4.854A4.858,4.858,0,0,0,0,62.94V88.118a4.8,4.8,0,0,0,1.183,3.163c.059.071.131.13.194.2.035.037.072.074.107.109.062.06.116.129.183.185a4.82,4.82,0,0,0,3.187,1.2H30.032a4.858,4.858,0,0,0,4.854-4.854v-10l.009-7.073Z" transform="translate(0 -53.138)"/>
      </g>
    </g>
  </g>
</svg>
