<svg xmlns="http://www.w3.org/2000/svg" viewBox="0 0 66 66">
  <defs>
    <style>
      .cls-1 {
        fill: #d1bd22;
      }

      .cls-2, .cls-3 {
        fill: #fff;
      }

      .cls-2 {
        font-size: 10px;
        font-family: Osaka;
      }
    </style>
  </defs>
  <g id="シンボル_157_1" data-name="シンボル 157 – 1" transform="translate(-442.196 -433)">
    <g id="グループ化_902" data-name="グループ化 902" transform="translate(0 174)">
      <rect id="長方形_370" data-name="長方形 370" class="cls-1" width="66" height="66" transform="translate(442.196 259)"/>
      <text id="Excel" class="cls-2" transform="translate(475.615 315.1)"><tspan x="-25" y="0">修正依頼中</tspan></text>
    </g>
    <g id="シンボル_153_1" data-name="シンボル 153 – 1" transform="translate(4 -2)">
      <path id="パス_1756" data-name="パス 1756" class="cls-3" d="M0,101.8v6.092H6.093L21.137,92.843l-6.092-6.092Z" transform="translate(468.715 355.106)"/>
      <g id="write" transform="translate(468.715 437.542)">
        <path id="パス_1755" data-name="パス 1755" class="cls-3" d="M343.988,2.775,342.082.87a2.96,2.96,0,0,0-4.187,0l-1.783,1.783L342.2,8.745l1.784-1.783A2.961,2.961,0,0,0,343.988,2.775Z" transform="translate(-319.405 0)"/>
      </g>
      <g id="ブログの投稿_編集アイコン素材" data-name="ブログの投稿、編集アイコン素材" transform="translate(454.027 437.028)">
        <path id="パス_1758" data-name="パス 1758" class="cls-3" d="M34.886,71.053v-.017l-4.73,4.73V88.118a.139.139,0,0,1-.124.124H17.139L4.828,88.23,4.8,88.218c-.023-.006-.047-.03-.071-.1V62.94a.129.129,0,0,1,.124-.124H17.372l2.768-2.768L22.1,58.1H22.09l.012-.012H4.854A4.858,4.858,0,0,0,0,62.94V88.118a4.8,4.8,0,0,0,1.183,3.163c.059.071.131.13.194.2.035.037.072.074.107.109.062.06.116.129.183.185a4.82,4.82,0,0,0,3.187,1.2H30.032a4.858,4.858,0,0,0,4.854-4.854v-10l.009-7.073Z" transform="translate(0 -53.138)"/>
        <g id="ブログの投稿_編集アイコン素材-2" data-name="ブログの投稿、編集アイコン素材" transform="translate(0 0)">
          <path id="パス_1758-2" data-name="パス 1758" class="cls-3" d="M34.886,71.053v-.017l-4.73,4.73V88.118a.139.139,0,0,1-.124.124H17.139L4.828,88.23,4.8,88.218c-.023-.006-.047-.03-.071-.1V62.94a.129.129,0,0,1,.124-.124H17.372l2.768-2.768L22.1,58.1H22.09l.012-.012H4.854A4.858,4.858,0,0,0,0,62.94V88.118a4.8,4.8,0,0,0,1.183,3.163c.059.071.131.13.194.2.035.037.072.074.107.109.062.06.116.129.183.185a4.82,4.82,0,0,0,3.187,1.2H30.032a4.858,4.858,0,0,0,4.854-4.854v-10l.009-7.073Z" transform="translate(0 -53.138)"/>
        </g>
      </g>
    </g>
  </g>
</svg>
