<svg xmlns="http://www.w3.org/2000/svg" viewBox="0 0 26.966 34">
  <defs>
    <style>
      .cls-1 {
        fill: #fff;
      }
    </style>
  </defs>
  <g id="シンボル_56_2" data-name="シンボル 56 – 2" transform="translate(-1570.638 38)">
    <g id="ビルアイコン7" transform="translate(1517.675 -38)">
      <path id="パス_1669" data-name="パス 1669" class="cls-1" d="M52.963,0V34H64.687V25.793H68.2V34H79.929V0ZM61.17,29.31H57.653V25.793H61.17Zm0-7.034H57.653V18.759H61.17Zm0-7.034H57.653V11.724H61.17Zm0-7.034H57.653V4.69H61.17ZM68.2,22.276H64.687V18.759H68.2Zm0-7.034H64.687V11.724H68.2Zm0-7.034H64.687V4.69H68.2Zm7.035,21.1H71.722V25.793h3.518Zm0-7.034H71.722V18.759h3.518Zm0-7.034H71.722V11.724h3.518Zm0-7.034H71.722V4.69h3.518Z" transform="translate(0)"/>
    </g>
  </g>
</svg>
